M48
; DRILL file {KiCad 9.0.7-1.fc43app1} date 2026-01-21T16:55:55-0300
; FORMAT={-:-/ absolute / metric / decimal}
; #@! TF.CreationDate,2026-01-21T16:55:55-03:00
; #@! TF.GenerationSoftware,Kicad,Pcbnew,9.0.7-1.fc43app1
; #@! TF.FileFunction,Plated,1,2,PTH
FMAT,2
METRIC
; #@! TA.AperFunction,Plated,PTH,ViaDrill
T1C0.700
; #@! TA.AperFunction,Plated,PTH,ComponentDrill
T2C1.000
; #@! TA.AperFunction,Plated,PTH,ComponentDrill
T3C1.200
; #@! TA.AperFunction,Plated,PTH,ComponentDrill
T4C1.220
; #@! TA.AperFunction,Plated,PTH,ComponentDrill
T5C1.300
%
G90
G05
T1
X76.952Y-85.877
X77.831Y-33.638
X83.503Y-64.345
X83.503Y-117.695
X86.54Y-34.888
X86.968Y-86.212
X89.735Y-47.457
X90.994Y-105.293
X92.007Y-85.826
X93.21Y-89.413
X94.023Y-36.731
X98.437Y-84.776
X98.437Y-88.639
X101.58Y-33.589
X107.525Y-40.095
X112.925Y-98.295
X113.917Y-144.129
X116.313Y-86.754
X117.813Y-141.875
X118.434Y-143.602
X121.889Y-141.129
X122.733Y-88.595
X126.247Y-34.346
X126.247Y-85.679
X127.404Y-38.774
X132.54Y-117.695
X135.438Y-88.835
X136.388Y-107.995
X136.464Y-85.838
X136.555Y-36.514
X144.03Y-36.502
X144.03Y-86.775
X147.732Y-35.949
X152.155Y-44.945
X153.509Y-95.263
X155.692Y-36.598
X157.058Y-88.595
X171.548Y-83.745
X171.77Y-35.245
X182.287Y-85.761
X184.858Y-36.511
X184.87Y-33.775
X185.105Y-86.96
X185.114Y-85.352
X186.481Y-146.795
X187.465Y-36.25
X188.0Y-32.6
X189.951Y-88.606
X192.572Y-36.292
X192.932Y-87.237
X204.813Y-35.673
X206.095Y-88.595
X206.359Y-98.295
T2
X104.825Y-147.272
X107.365Y-147.272
X109.905Y-147.272
X112.445Y-147.272
X114.985Y-147.272
X117.525Y-147.272
X123.535Y-147.162
X126.075Y-147.162
X128.615Y-147.162
X131.155Y-147.162
X133.695Y-147.162
X136.235Y-147.162
T3
X77.74Y-41.542
X77.74Y-82.182
X78.187Y-92.439
X78.187Y-133.079
X88.285Y-41.542
X88.285Y-82.182
X88.732Y-92.439
X88.732Y-133.079
X98.835Y-41.542
X98.835Y-82.182
X99.282Y-92.439
X99.282Y-133.079
X127.74Y-41.542
X127.74Y-82.182
X127.74Y-92.142
X127.74Y-132.782
X138.285Y-41.542
X138.285Y-82.182
X138.285Y-92.142
X138.285Y-132.782
X148.835Y-41.542
X148.835Y-82.182
X148.835Y-92.142
X148.835Y-132.782
X174.977Y-41.545
X174.977Y-82.185
X175.237Y-92.815
X175.237Y-133.455
X185.528Y-41.545
X185.528Y-82.185
X185.787Y-92.815
X185.787Y-133.455
X196.077Y-41.545
X196.077Y-82.185
X196.337Y-92.815
X196.337Y-133.455
T4
X107.785Y-59.602
X107.785Y-62.142
X107.785Y-64.682
X107.785Y-67.222
X108.232Y-110.499
X108.232Y-113.039
X108.232Y-115.579
X108.232Y-118.119
X111.595Y-60.872
X111.595Y-63.412
X111.595Y-65.953
X112.042Y-111.769
X112.042Y-114.309
X112.042Y-116.849
X157.785Y-59.602
X157.785Y-62.142
X157.785Y-64.682
X157.785Y-67.222
X157.785Y-110.203
X157.785Y-112.742
X157.785Y-115.282
X157.785Y-117.822
X161.595Y-60.872
X161.595Y-63.412
X161.595Y-65.953
X161.595Y-111.472
X161.595Y-114.012
X161.595Y-116.552
X205.028Y-59.145
X205.028Y-61.685
X205.028Y-64.225
X205.028Y-66.765
X205.287Y-110.415
X205.287Y-112.955
X205.287Y-115.495
X205.287Y-118.035
X208.837Y-60.415
X208.837Y-62.955
X208.837Y-65.495
X209.097Y-111.685
X209.097Y-114.225
X209.097Y-116.765
T5
X142.263Y-144.661
X147.263Y-144.661
M30
