%TF.GenerationSoftware,KiCad,Pcbnew,9.0.7-1.fc43app1*%
%TF.CreationDate,2026-01-21T16:55:52-03:00*%
%TF.ProjectId,pv-emulator,70762d65-6d75-46c6-9174-6f722e6b6963,rev?*%
%TF.SameCoordinates,Original*%
%TF.FileFunction,Soldermask,Bot*%
%TF.FilePolarity,Negative*%
%FSLAX46Y46*%
G04 Gerber Fmt 4.6, Leading zero omitted, Abs format (unit mm)*
G04 Created by KiCad (PCBNEW 9.0.7-1.fc43app1) date 2026-01-21 16:55:52*
%MOMM*%
%LPD*%
G01*
G04 APERTURE LIST*
G04 Aperture macros list*
%AMRoundRect*
0 Rectangle with rounded corners*
0 $1 Rounding radius*
0 $2 $3 $4 $5 $6 $7 $8 $9 X,Y pos of 4 corners*
0 Add a 4 corners polygon primitive as box body*
4,1,4,$2,$3,$4,$5,$6,$7,$8,$9,$2,$3,0*
0 Add four circle primitives for the rounded corners*
1,1,$1+$1,$2,$3*
1,1,$1+$1,$4,$5*
1,1,$1+$1,$6,$7*
1,1,$1+$1,$8,$9*
0 Add four rect primitives between the rounded corners*
20,1,$1+$1,$2,$3,$4,$5,0*
20,1,$1+$1,$4,$5,$6,$7,0*
20,1,$1+$1,$6,$7,$8,$9,0*
20,1,$1+$1,$8,$9,$2,$3,0*%
G04 Aperture macros list end*
%ADD10C,2.400000*%
%ADD11C,2.200000*%
%ADD12RoundRect,0.102000X-0.915000X0.915000X-0.915000X-0.915000X0.915000X-0.915000X0.915000X0.915000X0*%
%ADD13C,2.034000*%
%ADD14R,1.700000X1.700000*%
%ADD15C,1.700000*%
%ADD16C,2.154000*%
G04 APERTURE END LIST*
D10*
%TO.C,R26*%
X88285000Y-82182500D03*
X88285000Y-41542500D03*
%TD*%
D11*
%TO.C,H2*%
X71000000Y-149500000D03*
%TD*%
D12*
%TO.C,U4*%
X157785000Y-110202500D03*
D13*
X161595000Y-111472500D03*
X157785000Y-112742500D03*
X161595000Y-114012500D03*
X157785000Y-115282500D03*
X161595000Y-116552500D03*
X157785000Y-117822500D03*
%TD*%
D10*
%TO.C,R46*%
X174977500Y-82185000D03*
X174977500Y-41545000D03*
%TD*%
D11*
%TO.C,H1*%
X224000000Y-32500000D03*
%TD*%
D12*
%TO.C,U3*%
X157785000Y-59602500D03*
D13*
X161595000Y-60872500D03*
X157785000Y-62142500D03*
X161595000Y-63412500D03*
X157785000Y-64682500D03*
X161595000Y-65952500D03*
X157785000Y-67222500D03*
%TD*%
D10*
%TO.C,R39*%
X185787500Y-133455000D03*
X185787500Y-92815000D03*
%TD*%
%TO.C,R31*%
X148835000Y-82182500D03*
X148835000Y-41542500D03*
%TD*%
%TO.C,R25*%
X88732000Y-133079500D03*
X88732000Y-92439500D03*
%TD*%
%TO.C,R29*%
X99282000Y-133079500D03*
X99282000Y-92439500D03*
%TD*%
D12*
%TO.C,U1*%
X108232000Y-110499500D03*
D13*
X112042000Y-111769500D03*
X108232000Y-113039500D03*
X112042000Y-114309500D03*
X108232000Y-115579500D03*
X112042000Y-116849500D03*
X108232000Y-118119500D03*
%TD*%
D14*
%TO.C,J3*%
X123535000Y-147162500D03*
D15*
X126075000Y-147162500D03*
X128615000Y-147162500D03*
X131155000Y-147162500D03*
X133695000Y-147162500D03*
X136235000Y-147162500D03*
%TD*%
D10*
%TO.C,R18*%
X77740000Y-82182500D03*
X77740000Y-41542500D03*
%TD*%
%TO.C,R27*%
X138285000Y-82182500D03*
X138285000Y-41542500D03*
%TD*%
D12*
%TO.C,U5*%
X205287500Y-110415000D03*
D13*
X209097500Y-111685000D03*
X205287500Y-112955000D03*
X209097500Y-114225000D03*
X205287500Y-115495000D03*
X209097500Y-116765000D03*
X205287500Y-118035000D03*
%TD*%
D10*
%TO.C,R20*%
X127740000Y-132782500D03*
X127740000Y-92142500D03*
%TD*%
%TO.C,R28*%
X138285000Y-132782500D03*
X138285000Y-92142500D03*
%TD*%
%TO.C,R38*%
X175237500Y-133455000D03*
X175237500Y-92815000D03*
%TD*%
D11*
%TO.C,H3*%
X70500000Y-32500000D03*
%TD*%
D12*
%TO.C,U6*%
X205027500Y-59145000D03*
D13*
X208837500Y-60415000D03*
X205027500Y-61685000D03*
X208837500Y-62955000D03*
X205027500Y-64225000D03*
X208837500Y-65495000D03*
X205027500Y-66765000D03*
%TD*%
D12*
%TO.C,U2*%
X107785000Y-59602500D03*
D13*
X111595000Y-60872500D03*
X107785000Y-62142500D03*
X111595000Y-63412500D03*
X107785000Y-64682500D03*
X111595000Y-65952500D03*
X107785000Y-67222500D03*
%TD*%
D10*
%TO.C,R48*%
X196077500Y-82185000D03*
X196077500Y-41545000D03*
%TD*%
%TO.C,R40*%
X196337500Y-133455000D03*
X196337500Y-92815000D03*
%TD*%
%TO.C,R47*%
X185527500Y-82185000D03*
X185527500Y-41545000D03*
%TD*%
D14*
%TO.C,J2*%
X104825000Y-147272500D03*
D15*
X107365000Y-147272500D03*
X109905000Y-147272500D03*
X112445000Y-147272500D03*
X114985000Y-147272500D03*
X117525000Y-147272500D03*
%TD*%
D16*
%TO.C,J1*%
X142263500Y-144661000D03*
X147263500Y-144661000D03*
%TD*%
D10*
%TO.C,R32*%
X148835000Y-132782500D03*
X148835000Y-92142500D03*
%TD*%
D11*
%TO.C,H4*%
X224000000Y-149500000D03*
%TD*%
D10*
%TO.C,R30*%
X98835000Y-82182500D03*
X98835000Y-41542500D03*
%TD*%
%TO.C,R17*%
X78187000Y-133079500D03*
X78187000Y-92439500D03*
%TD*%
%TO.C,R19*%
X127740000Y-82182500D03*
X127740000Y-41542500D03*
%TD*%
M02*
